<?xml version="1.0" standalone="no"?>
<!DOCTYPE svg PUBLIC "-//W3C//DTD SVG 20010904//EN"
 "http://www.w3.org/TR/2001/REC-SVG-20010904/DTD/svg10.dtd">
<svg version="1.0" xmlns="http://www.w3.org/2000/svg"
 width="657.000000pt" height="657.000000pt" viewBox="0 0 657.000000 657.000000"
 preserveAspectRatio="xMidYMid meet">
<metadata>
Created by potrace 1.14, written by Peter Selinger 2001-2017
</metadata>
<g transform="translate(0.000000,657.000000) scale(0.100000,-0.100000)"
fill="#000000" stroke="none">
<path d="M3049 6556 c-2 -2 -39 -7 -82 -11 -43 -3 -88 -8 -100 -10 -12 -2 -44
-6 -70 -10 -232 -29 -581 -130 -827 -238 -378 -167 -691 -380 -990 -674 -74
-73 -157 -160 -185 -194 -27 -34 -63 -77 -80 -96 -50 -59 -191 -262 -254 -368
-168 -283 -314 -646 -376 -935 -2 -8 -8 -37 -15 -65 -16 -73 -48 -287 -57
-385 -9 -104 -10 -454 -1 -570 35 -449 195 -956 424 -1350 28 -47 57 -96 65
-110 7 -14 16 -27 19 -30 3 -3 18 -25 34 -50 239 -370 641 -752 1051 -997 337
-201 803 -372 1135 -417 19 -3 67 -9 106 -15 215 -32 655 -35 831 -6 15 2 75
12 133 21 145 22 326 66 477 115 1250 403 2144 1525 2261 2834 9 106 9 468 -1
573 -16 183 -40 322 -88 517 -30 118 -97 331 -124 390 -7 17 -25 59 -40 95
-104 250 -278 537 -468 775 -96 120 -352 378 -457 461 -41 32 -77 62 -80 65
-11 15 -251 178 -330 226 -164 98 -368 196 -550 263 -181 67 -494 147 -636
164 -22 2 -56 7 -75 11 -19 3 -56 8 -84 11 -60 6 -560 15 -566 10z m471 -80
c130 -10 235 -24 385 -51 62 -12 268 -66 361 -96 727 -233 1371 -747 1767
-1411 53 -89 187 -349 187 -363 0 -4 7 -21 15 -38 65 -141 170 -486 191 -627
2 -19 9 -55 14 -80 5 -25 12 -72 16 -105 4 -33 8 -71 10 -85 22 -156 21 -505
0 -685 -2 -16 -7 -55 -11 -85 -54 -449 -256 -975 -523 -1365 -164 -239 -429
-526 -644 -698 -488 -391 -1040 -619 -1683 -694 -88 -10 -557 -11 -650 0 -250
27 -615 111 -770 178 -11 4 -58 23 -105 40 -88 33 -382 179 -435 215 -16 12
-75 50 -129 85 -523 336 -977 893 -1211 1484 -61 154 -130 375 -149 475 -2 14
-11 57 -19 95 -16 71 -20 96 -32 195 -4 30 -9 62 -10 71 -21 110 -21 588 -1
695 2 10 7 44 10 74 18 157 71 390 129 570 294 906 987 1641 1878 1993 164 65
420 140 554 163 11 1 47 8 80 13 33 6 80 14 105 17 25 3 56 7 70 10 14 2 72 7
130 10 58 4 106 7 107 8 5 4 286 -2 363 -8z"/>
<path d="M1335 3291 l0 -1219 765 1 765 2 2 193 2 192 -552 0 -552 0 0 305 c0
200 3 305 10 306 5 0 216 1 468 2 l457 0 -2 196 -3 196 -457 0 c-251 0 -460 4
-465 8 -10 10 -12 640 -2 647 4 3 244 5 533 4 l526 0 0 45 c1 83 1 296 1 319
l-1 22 -748 0 -747 0 0 -1219z"/>
<path d="M3605 3293 l0 -1218 545 -2 c578 -1 637 2 770 47 369 123 552 536
405 911 -62 157 -207 296 -345 329 l-49 12 46 25 c123 65 190 142 234 270 65
189 35 423 -75 577 -82 115 -193 191 -346 237 -73 22 -88 23 -630 27 l-555 3
0 -1218z m1000 823 c124 -23 206 -136 207 -286 1 -147 -60 -248 -175 -286 -42
-14 -97 -17 -320 -18 -169 -1 -271 3 -276 9 -6 8 -8 561 -2 585 2 8 522 4 566
-4z m139 -990 c75 -37 131 -93 165 -165 22 -48 26 -69 26 -151 0 -82 -4 -103
-26 -151 -35 -73 -87 -125 -168 -163 l-66 -31 -320 -3 -320 -3 1 348 c1 191 2
349 3 351 0 2 146 2 324 0 l322 -3 59 -29z"/>
</g>
</svg>
